<?xml version="1.0" encoding="UTF-8" standalone="no"?>
<svg width="100px" height="28px" viewBox="0 0 100 28" version="1.1" xmlns="http://www.w3.org/2000/svg" xmlns:xlink="http://www.w3.org/1999/xlink">
    <!-- Generator: Sketch 3.6.1 (26313) - http://www.bohemiancoding.com/sketch -->
    <title>gnv-logo-mobile</title>
    <desc>Created with Sketch.</desc>
    <defs></defs>
    <g id="Page-1" stroke="none" stroke-width="1" fill="none" fill-rule="evenodd">
        <g id="gnv-logo-mobile">
            <g id="city72logo-mobile" fill="#C6C6C6">
                <g id="Page-1">
                    <g id="t">
                        <path d="M14.201776,5.842017 C13.769524,4.617302 12.688892,4.437197 11.716324,4.833428 L8.618515,6.202228 L8.942704,2.81625 C9.050768,1.77164 8.510452,0.799072 7.213695,0.799072 C5.916937,0.799072 5.376622,1.77164 5.484685,2.81625 L5.808874,6.202228 L2.675044,4.833428 C1.738497,4.437197 0.621844,4.617302 0.225613,5.842017 C-0.170618,7.102754 0.621844,7.895217 1.630434,8.111343 L4.944369,8.867785 L2.675044,11.425278 C1.990644,12.18172 1.84656,13.298372 2.89117,14.054814 C3.93578,14.811256 4.944369,14.342983 5.484685,13.442457 L7.213695,10.488731 L8.942704,13.442457 C9.446999,14.342983 10.455588,14.811256 11.536219,14.054814 C12.580829,13.298372 12.400724,12.18172 11.716324,11.425278 L9.446999,8.867785 L12.796956,8.111343 C13.805545,7.895217 14.598008,7.102754 14.201776,5.842017 L14.201776,5.842017 L14.201776,5.842017 Z M36.642883,18.593465 L36.642883,15.495656 C36.642883,14.054814 35.670315,13.010204 34.301516,13.010204 L29.474696,13.010204 C28.21396,13.010204 27.16935,14.054814 27.16935,15.315551 C27.16935,16.576287 28.21396,17.620897 29.474696,17.620897 L31.852085,17.620897 L31.852085,18.737549 C31.852085,21.295043 30.98758,23.204158 27.781708,23.204158 C24.827982,23.204158 23.207036,21.439127 23.207036,16.180056 L23.207036,12.325804 C23.207036,7.282859 24.827982,5.22966 27.961813,5.22966 C29.150507,5.22966 30.051033,5.553849 30.771454,5.950081 C31.419833,6.346312 31.888106,6.562438 32.464443,6.562438 C33.977326,6.526417 34.733768,5.481807 34.733768,4.401176 C34.733768,3.752797 34.373558,3.068397 33.653137,2.492061 C32.284338,1.339388 29.978991,0.763051 27.961813,0.763051 C20.901689,0.763051 18.272153,5.661912 18.272153,12.18172 L18.272153,16.252098 C18.272153,23.024053 20.901689,27.670767 27.781708,27.670767 C34.301516,27.670767 36.642883,23.312221 36.642883,18.593465 L36.642883,18.593465 L36.642883,18.593465 Z M60.020537,25.401441 L60.020537,3.068397 C60.020537,1.807661 58.975927,0.763051 57.715191,0.763051 C56.454455,0.763051 55.445865,1.807661 55.445865,3.068397 L55.445865,17.404771 L46.22448,2.059808 C45.684164,1.195303 44.891701,0.763051 43.81107,0.763051 C42.298186,0.763051 41.39766,1.807661 41.39766,3.068397 L41.39766,25.401441 C41.39766,26.662178 42.406249,27.670767 43.666986,27.670767 C44.927722,27.670767 45.936311,26.662178 45.936311,25.401441 L45.936311,11.065068 L55.193718,26.446052 C55.734034,27.310557 56.526497,27.670767 57.607128,27.670767 C59.047969,27.670767 60.020537,26.662178 60.020537,25.401441 L60.020537,25.401441 L60.020537,25.401441 Z M83.037981,3.716776 C83.578297,1.951745 82.137455,0.763051 80.696614,0.763051 C79.760067,0.763051 78.859541,1.303367 78.535351,2.492061 C76.986447,7.823175 75.221416,13.694604 73.240259,19.45797 C71.295122,13.730625 69.602134,7.895217 68.08925,2.600124 C67.72904,1.339388 66.756472,0.763051 65.783904,0.763051 C64.307041,0.763051 62.758136,2.023787 63.298452,3.932902 C65.207567,10.704858 67.476892,17.72896 69.998365,25.077252 C70.682765,27.022388 71.691354,27.670767 73.096174,27.670767 C74.356911,27.670767 75.509584,26.986367 76.193984,25.077252 C78.787499,17.656918 81.092845,10.560774 83.037981,3.716776 L83.037981,3.716776 L83.037981,3.716776 Z" id="city72logo-mobile"></path>
                    </g>
                </g>
            </g>
            <path d="M99.28347,5.842017 C98.851217,4.617302 97.770586,4.437197 96.798018,4.833428 L93.700209,6.202228 L94.024398,2.81625 C94.132461,1.77164 93.592145,0.799072 92.295388,0.799072 C90.998631,0.799072 90.458315,1.77164 90.566378,2.81625 L90.890568,6.202228 L87.756737,4.833428 C86.82019,4.437197 85.703538,4.617302 85.307307,5.842017 C84.911075,7.102754 85.703538,7.895217 86.712127,8.111343 L90.026063,8.867785 L87.756737,11.425278 C87.072337,12.18172 86.928253,13.298372 87.972863,14.054814 C89.017474,14.811256 90.026063,14.342983 90.566378,13.442457 L92.295388,10.488731 L94.024398,13.442457 C94.528692,14.342983 95.537282,14.811256 96.617913,14.054814 C97.662523,13.298372 97.482418,12.18172 96.798018,11.425278 L94.528692,8.867785 L97.878649,8.111343 C98.887238,7.895217 99.679701,7.102754 99.28347,5.842017 L99.28347,5.842017 L99.28347,5.842017 Z" id="city72logo-mobile-path" fill="#FFAB3F"></path>
        </g>
    </g>
</svg>