<?xml version="1.0" encoding="UTF-8" standalone="no"?>
<svg width="404px" height="82px" viewBox="0 0 404 82" version="1.1" xmlns="http://www.w3.org/2000/svg" xmlns:xlink="http://www.w3.org/1999/xlink">
    <!-- Generator: Sketch 3.6.1 (26313) - http://www.bohemiancoding.com/sketch -->
    <title>city72logo</title>
    <desc>Created with Sketch.</desc>
    <defs></defs>
    <g id="Page-1" stroke="none" stroke-width="1" fill="none" fill-rule="evenodd">
        <g id="namingGNV" transform="translate(-252.000000, -742.000000)">
            <g id="city72logo" transform="translate(252.000000, 742.000000)">
                <path d="M42.6989355,63.5550453 C42.6989355,51.6423876 35.0433579,48.5822553 27.7158765,46.9428987 C20.4977605,45.4128326 14.263933,45.1942517 14.263933,40.276182 C14.263933,37.6532115 16.4512409,35.5766932 21.7007798,35.5766932 C25.4192032,35.5766932 28.2627035,36.2324358 32.4185884,37.6532115 C35.6995502,38.6368255 39.0898775,36.778888 40.074166,33.6094653 C41.1678199,30.4400426 39.527339,27.052039 36.1370118,25.8498442 C31.9811268,24.4290685 27.8252419,23.4454546 20.8258567,23.4454546 C9.88931727,23.4454546 0.374528002,29.5657191 0.374528002,41.1505055 C0.374528002,51.8609685 6.71772085,55.248972 13.3890099,56.8883286 C20.8258567,58.8555565 28.700165,58.6369756 28.700165,64.210788 C28.700165,67.4895011 25.4192032,69.5660194 19.8415681,69.5660194 C14.1545676,69.5660194 11.5297982,68.6916959 8.24883637,67.4895011 C5.18660534,66.3965967 1.46818194,67.8173724 0.265162608,71.4239569 C-0.609760543,74.4840891 0.702624184,78.199964 3.87422061,79.2928684 C7.7020094,80.6043537 11.8578944,81.5879676 19.6228373,81.5879676 C31.4342999,81.5879676 42.6989355,76.5606074 42.6989355,63.5550453 L42.6989355,63.5550453 Z M101.756248,75.5769935 C101.756248,73.5004752 100.77196,72.1889899 99.6783057,71.205376 C98.0378248,69.7846003 96.8348054,68.8009863 96.8348054,65.0851115 L96.8348054,46.8336083 C96.8348054,30.4400426 90.8197088,23.4454546 74.9617267,23.4454546 C69.1653608,23.4454546 62.275341,24.4290685 57.572629,27.4892008 C50.90134,31.7515279 56.6977059,41.259796 63.9158219,37.5439211 C66.3218605,36.2324358 69.1653608,35.1395314 73.7587073,35.1395314 C80.4299964,35.1395314 82.0704773,38.7461159 82.0704773,45.0849613 L82.0704773,47.1614796 L72.3369572,47.1614796 C58.3381868,47.1614796 50.6826092,53.500325 50.6826092,63.7736262 L50.6826092,64.5386593 C50.6826092,74.8119604 57.2445328,81.5879676 70.3683801,81.5879676 C75.1804574,81.5879676 81.1955541,80.6043537 85.3514391,76.9977692 C86.0076314,77.8720927 86.6638238,78.6371258 87.538747,79.2928684 C88.9604971,80.3857728 91.3665357,81.5879676 94.3194014,81.5879676 C98.8033825,81.5879676 101.756248,79.8393206 101.756248,75.5769935 L101.756248,75.5769935 Z M82.0704773,62.5714314 C82.0704773,68.3638246 78.5707847,71.0960855 73.5399765,71.0960855 C67.8529761,71.0960855 65.337572,68.8009863 65.337572,64.7572401 L65.337572,63.9922071 C65.337572,60.3856226 67.6342453,57.7626521 74.0868035,57.7626521 L82.0704773,57.7626521 L82.0704773,62.5714314 Z M146.81479,7.16117932 C146.81479,3.6638853 143.861925,0.713043478 140.362232,0.713043478 L135.112693,0.713043478 C121.004558,0.713043478 114.005172,9.01911677 114.005172,22.5711311 L114.005172,24.1011972 L112.364691,24.1011972 C109.08373,24.1011972 106.349595,26.8334582 106.349595,30.1121713 C106.349595,33.5001749 109.08373,36.2324358 112.364691,36.2324358 L114.005172,36.2324358 L114.005172,74.2655082 C114.005172,78.3092545 117.286134,81.5879676 121.442019,81.5879676 C125.488539,81.5879676 128.7695,78.3092545 128.7695,74.2655082 L128.7695,36.2324358 L135.768886,36.2324358 C139.049848,36.2324358 141.783982,33.5001749 141.783982,30.1121713 C141.783982,26.8334582 139.049848,24.1011972 135.768886,24.1011972 L128.7695,24.1011972 L128.7695,22.5711311 C128.7695,16.2322857 131.39427,13.6093152 136.971905,13.6093152 L140.362232,13.6093152 C143.861925,13.6093152 146.81479,10.7677638 146.81479,7.16117932 L146.81479,7.16117932 Z M195.122872,51.8609685 L195.122872,47.1614796 C195.122872,34.4837888 188.889044,23.4454546 172.265504,23.4454546 C156.298157,23.4454546 149.189406,34.7023697 149.189406,47.4893509 L149.189406,57.6533617 C149.189406,70.4403429 155.204503,81.5879676 172.156139,81.5879676 C177.405678,81.5879676 183.311409,80.8229345 189.326506,78.0906736 C192.060641,76.8884788 193.373025,74.1562178 192.388737,70.8775047 C191.513814,67.708082 188.232852,65.959435 185.279986,67.1616298 C181.452197,68.6916959 178.499332,69.5660194 173.031062,69.5660194 C166.9066,69.5660194 163.953734,65.7408541 163.953734,59.1834278 L163.953734,57.1069095 L190.092064,57.1069095 C192.826198,57.1069095 195.122872,54.8118103 195.122872,51.8609685 L195.122872,51.8609685 Z M180.90537,44.6477996 L180.90537,46.0685752 L163.953734,46.0685752 L163.953734,44.6477996 C163.953734,38.4182446 166.797235,34.9209506 172.593601,34.9209506 C178.389966,34.9209506 180.90537,38.4182446 180.90537,44.6477996 L180.90537,44.6477996 Z" id="safeGNV-Copy" fill="#FFBA00"></path>
                <path d="M264.841377,54.0987668 L264.841377,44.6997891 C264.841377,40.3281716 261.888512,37.1587489 257.732627,37.1587489 L243.077664,37.1587489 C239.249875,37.1587489 236.078279,40.3281716 236.078279,44.1533369 C236.078279,47.9785023 239.249875,51.147925 243.077664,51.147925 L250.29578,51.147925 L250.29578,54.5359286 C250.29578,62.2955497 247.67101,68.0879429 237.93749,68.0879429 C228.969528,68.0879429 224.048085,62.7327114 224.048085,46.7763075 L224.048085,35.0822306 C224.048085,19.7815693 228.969528,13.5520143 238.484317,13.5520143 C242.093375,13.5520143 244.82751,14.5356283 247.014818,15.7378231 C248.983395,16.9400179 250.405145,17.5957605 252.154992,17.5957605 C256.748338,17.4864701 259.045011,14.3170474 259.045011,11.0383342 C259.045011,9.07110635 257.951357,6.99458803 255.76405,5.24594102 C251.608165,1.74864701 244.608779,0 238.484317,0 C217.0487,0 209.065026,14.8634996 209.065026,34.6450688 L209.065026,46.9948883 C209.065026,67.5414907 217.0487,81.6399572 237.93749,81.6399572 C257.732627,81.6399572 264.841377,68.4158142 264.841377,54.0987668 L264.841377,54.0987668 Z" id="Path" fill="#F57026"></path>
                <path d="M333.533121,74.7546596 L333.533121,6.99458803 C333.533121,3.1694227 330.361525,0 326.533736,0 C322.705947,0 319.643716,3.1694227 319.643716,6.99458803 L319.643716,50.4921824 L291.646175,3.93445577 C290.005695,1.31148526 287.599656,0 284.318694,0 C279.725348,0 276.991213,3.1694227 276.991213,6.99458803 L276.991213,74.7546596 C276.991213,78.5798249 280.053444,81.6399572 283.881232,81.6399572 C287.709021,81.6399572 290.771252,78.5798249 290.771252,74.7546596 L290.771252,31.2570653 L318.878159,77.9240823 C320.518639,80.5470528 322.924678,81.6399572 326.20564,81.6399572 C330.580256,81.6399572 333.533121,78.5798249 333.533121,74.7546596 L333.533121,74.7546596 Z" id="Path" fill="#F57026"></path>
                <path d="M403.616007,8.96181592 C405.256488,3.60658445 400.881872,0 396.507257,0 C393.663756,0 390.929621,1.63935657 389.945333,5.24594102 C385.242621,21.4209258 379.883717,39.2352672 373.86862,56.7217373 C367.962889,39.3445577 362.822715,21.6395067 358.229369,5.57381234 C357.135715,1.74864701 354.182849,0 351.229983,0 C346.746002,0 342.04329,3.82516533 343.683771,9.61755854 C349.480137,30.1641609 356.370157,51.4757963 364.025735,73.7710456 C366.103677,79.6727293 369.165908,81.6399572 373.431158,81.6399572 C377.258947,81.6399572 380.75864,79.5634389 382.836582,73.7710456 C390.710891,51.2572154 397.710276,29.7269991 403.616007,8.96181592 L403.616007,8.96181592 Z" id="Path" fill="#F57026"></path>
            </g>
        </g>
    </g>
</svg>