<?xml version="1.0" encoding="UTF-8" standalone="no"?>
<svg width="100px" height="28px" viewBox="0 0 100 28" version="1.1" xmlns="http://www.w3.org/2000/svg" xmlns:xlink="http://www.w3.org/1999/xlink" xmlns:sketch="http://www.bohemiancoding.com/sketch/ns">
    <!-- Generator: Sketch 3.5.1 (25234) - http://www.bohemiancoding.com/sketch -->
    <title>city72logo-mobile</title>
    <desc>Created with Sketch.</desc>
    <defs></defs>
    <g id="Page-1" stroke="none" stroke-width="1" fill="none" fill-rule="evenodd" sketch:type="MSPage">
        <g id="t" sketch:type="MSArtboardGroup" transform="translate(-175.000000, -137.000000)" fill="#C6C6C6">
            <path d="M189.201776,142.842017 C188.769524,141.617302 187.688892,141.437197 186.716324,141.833428 L183.618515,143.202228 L183.942704,139.81625 C184.050768,138.77164 183.510452,137.799072 182.213695,137.799072 C180.916937,137.799072 180.376622,138.77164 180.484685,139.81625 L180.808874,143.202228 L177.675044,141.833428 C176.738497,141.437197 175.621844,141.617302 175.225613,142.842017 C174.829382,144.102754 175.621844,144.895217 176.630434,145.111343 L179.944369,145.867785 L177.675044,148.425278 C176.990644,149.18172 176.84656,150.298372 177.89117,151.054814 C178.93578,151.811256 179.944369,151.342983 180.484685,150.442457 L182.213695,147.488731 L183.942704,150.442457 C184.446999,151.342983 185.455588,151.811256 186.536219,151.054814 C187.580829,150.298372 187.400724,149.18172 186.716324,148.425278 L184.446999,145.867785 L187.796956,145.111343 C188.805545,144.895217 189.598008,144.102754 189.201776,142.842017 L189.201776,142.842017 Z M211.642883,155.593465 L211.642883,152.495656 C211.642883,151.054814 210.670315,150.010204 209.301516,150.010204 L204.474696,150.010204 C203.21396,150.010204 202.16935,151.054814 202.16935,152.315551 C202.16935,153.576287 203.21396,154.620897 204.474696,154.620897 L206.852085,154.620897 L206.852085,155.737549 C206.852085,158.295043 205.98758,160.204158 202.781708,160.204158 C199.827982,160.204158 198.207036,158.439127 198.207036,153.180056 L198.207036,149.325804 C198.207036,144.282859 199.827982,142.22966 202.961813,142.22966 C204.150507,142.22966 205.051033,142.553849 205.771454,142.950081 C206.419833,143.346312 206.888106,143.562438 207.464443,143.562438 C208.977326,143.526417 209.733768,142.481807 209.733768,141.401176 C209.733768,140.752797 209.373558,140.068397 208.653137,139.492061 C207.284338,138.339388 204.978991,137.763051 202.961813,137.763051 C195.901689,137.763051 193.272153,142.661912 193.272153,149.18172 L193.272153,153.252098 C193.272153,160.024053 195.901689,164.670767 202.781708,164.670767 C209.301516,164.670767 211.642883,160.312221 211.642883,155.593465 L211.642883,155.593465 Z M235.020537,162.401441 L235.020537,140.068397 C235.020537,138.807661 233.975927,137.763051 232.715191,137.763051 C231.454455,137.763051 230.445865,138.807661 230.445865,140.068397 L230.445865,154.404771 L221.22448,139.059808 C220.684164,138.195303 219.891701,137.763051 218.81107,137.763051 C217.298186,137.763051 216.39766,138.807661 216.39766,140.068397 L216.39766,162.401441 C216.39766,163.662178 217.406249,164.670767 218.666986,164.670767 C219.927722,164.670767 220.936311,163.662178 220.936311,162.401441 L220.936311,148.065068 L230.193718,163.446052 C230.734034,164.310557 231.526497,164.670767 232.607128,164.670767 C234.047969,164.670767 235.020537,163.662178 235.020537,162.401441 L235.020537,162.401441 Z M258.037981,140.716776 C258.578297,138.951745 257.137455,137.763051 255.696614,137.763051 C254.760067,137.763051 253.859541,138.303367 253.535351,139.492061 C251.986447,144.823175 250.221416,150.694604 248.240259,156.45797 C246.295122,150.730625 244.602134,144.895217 243.08925,139.600124 C242.72904,138.339388 241.756472,137.763051 240.783904,137.763051 C239.307041,137.763051 237.758136,139.023787 238.298452,140.932902 C240.207567,147.704858 242.476892,154.72896 244.998365,162.077252 C245.682765,164.022388 246.691354,164.670767 248.096174,164.670767 C249.356911,164.670767 250.509584,163.986367 251.193984,162.077252 C253.787499,154.656918 256.092845,147.560774 258.037981,140.716776 L258.037981,140.716776 Z M274.28347,142.842017 C273.851217,141.617302 272.770586,141.437197 271.798018,141.833428 L268.700209,143.202228 L269.024398,139.81625 C269.132461,138.77164 268.592145,137.799072 267.295388,137.799072 C265.998631,137.799072 265.458315,138.77164 265.566378,139.81625 L265.890568,143.202228 L262.756737,141.833428 C261.82019,141.437197 260.703538,141.617302 260.307307,142.842017 C259.911075,144.102754 260.703538,144.895217 261.712127,145.111343 L265.026063,145.867785 L262.756737,148.425278 C262.072337,149.18172 261.928253,150.298372 262.972863,151.054814 C264.017474,151.811256 265.026063,151.342983 265.566378,150.442457 L267.295388,147.488731 L269.024398,150.442457 C269.528692,151.342983 270.537282,151.811256 271.617913,151.054814 C272.662523,150.298372 272.482418,149.18172 271.798018,148.425278 L269.528692,145.867785 L272.878649,145.111343 C273.887238,144.895217 274.679701,144.102754 274.28347,142.842017 L274.28347,142.842017 Z" id="city72logo-mobile" sketch:type="MSShapeGroup"></path>
        </g>
    </g>
</svg>