<?xml version="1.0" encoding="UTF-8" standalone="no"?>
<svg width="187px" height="51px" viewBox="0 0 187 51" version="1.1" xmlns="http://www.w3.org/2000/svg" xmlns:xlink="http://www.w3.org/1999/xlink" xmlns:sketch="http://www.bohemiancoding.com/sketch/ns">
    <!-- Generator: Sketch 3.5.1 (25234) - http://www.bohemiancoding.com/sketch -->
    <title>city72logo</title>
    <desc>Created with Sketch.</desc>
    <defs></defs>
    <g id="Page-1" stroke="none" stroke-width="1" fill="none" fill-rule="evenodd" sketch:type="MSPage">
        <g id="t" sketch:type="MSArtboardGroup" transform="translate(-131.000000, -39.000000)" fill="#FDB900">
            <path d="M157.390988,48.5196363 C156.580806,46.2241212 154.555352,45.8865454 152.732443,46.6292121 L146.92614,49.1947878 L147.533776,42.8483636 C147.736322,40.8904242 146.723594,39.0675152 144.293049,39.0675152 C141.862504,39.0675152 140.849776,40.8904242 141.052322,42.8483636 L141.659958,49.1947878 L135.78614,46.6292121 C134.030746,45.8865454 131.937776,46.2241212 131.19511,48.5196363 C130.452443,50.8826666 131.937776,52.3679999 133.828201,52.7730908 L140.039594,54.190909 L135.78614,58.9844847 C134.503352,60.4023029 134.233291,62.4952726 136.191231,63.9130908 C138.14917,65.3309089 140.039594,64.453212 141.052322,62.7653332 L144.293049,57.2290908 L147.533776,62.7653332 C148.478988,64.453212 150.369413,65.3309089 152.394867,63.9130908 C154.352806,62.4952726 154.015231,60.4023029 152.732443,58.9844847 L148.478988,54.190909 L154.757897,52.7730908 C156.648322,52.3679999 158.133655,50.8826666 157.390988,48.5196363 L157.390988,48.5196363 Z M199.452927,72.4199998 L199.452927,66.6136968 C199.452927,63.9130908 197.630018,61.9551514 195.064443,61.9551514 L186.017412,61.9551514 C183.654382,61.9551514 181.696443,63.9130908 181.696443,66.276121 C181.696443,68.6391513 183.654382,70.5970907 186.017412,70.5970907 L190.473412,70.5970907 L190.473412,72.6900604 C190.473412,77.4836361 188.853049,81.0619391 182.8442,81.0619391 C177.307958,81.0619391 174.269776,77.7536967 174.269776,67.8964847 L174.269776,60.6723635 C174.269776,51.2202423 177.307958,47.3718787 183.181776,47.3718787 C185.409776,47.3718787 187.097655,47.9795151 188.447958,48.7221818 C189.663231,49.4648484 190.540927,49.8699393 191.62117,49.8699393 C194.456806,49.8024242 195.874624,47.8444848 195.874624,45.8190303 C195.874624,44.6037575 195.199473,43.3209697 193.84917,42.2407273 C191.283594,40.0802424 186.962624,39 183.181776,39 C169.948806,39 165.0202,48.1820605 165.0202,60.4023029 L165.0202,68.031515 C165.0202,80.7243634 169.948806,89.4338179 182.8442,89.4338179 C195.064443,89.4338179 199.452927,81.2644846 199.452927,72.4199998 L199.452927,72.4199998 Z M243.27026,85.1803633 L243.27026,43.3209697 C243.27026,40.9579394 241.312321,39 238.949291,39 C236.586261,39 234.695836,40.9579394 234.695836,43.3209697 L234.695836,70.1919998 L217.411958,41.4305454 C216.39923,39.8101818 214.913897,39 212.888442,39 C210.052806,39 208.364927,40.9579394 208.364927,43.3209697 L208.364927,85.1803633 C208.364927,87.5433936 210.255352,89.4338179 212.618382,89.4338179 C214.981412,89.4338179 216.871836,87.5433936 216.871836,85.1803633 L216.871836,58.3093332 L234.22323,87.1383027 C235.235957,88.7586664 236.721291,89.4338179 238.746745,89.4338179 C241.447351,89.4338179 243.27026,87.5433936 243.27026,85.1803633 L243.27026,85.1803633 Z M286.412442,44.5362424 C287.425169,41.228 284.724563,39 282.023957,39 C280.268563,39 278.580684,40.0127273 277.973048,42.2407273 C275.069897,52.2329696 271.761654,63.2379392 268.048321,74.0403634 C264.402503,63.3054544 261.229291,52.3679999 258.393654,42.4432727 C257.718503,40.0802424 255.895594,39 254.072685,39 C251.304563,39 248.401412,41.3630303 249.414139,44.9413333 C252.992442,57.6341817 257.245897,70.7996362 261.971957,84.572727 C263.254745,88.2185451 265.145169,89.4338179 267.77826,89.4338179 C270.141291,89.4338179 272.301775,88.15103 273.584563,84.572727 C278.445654,70.6646059 282.766624,57.3641211 286.412442,44.5362424 L286.412442,44.5362424 Z M316.861775,48.5196363 C316.051593,46.2241212 314.026139,45.8865454 312.20323,46.6292121 L306.396927,49.1947878 L307.004563,42.8483636 C307.207109,40.8904242 306.194381,39.0675152 303.763836,39.0675152 C301.33329,39.0675152 300.320563,40.8904242 300.523109,42.8483636 L301.130745,49.1947878 L295.256927,46.6292121 C293.501533,45.8865454 291.408563,46.2241212 290.665897,48.5196363 C289.92323,50.8826666 291.408563,52.3679999 293.298987,52.7730908 L299.510381,54.190909 L295.256927,58.9844847 C293.974139,60.4023029 293.704078,62.4952726 295.662018,63.9130908 C297.619957,65.3309089 299.510381,64.453212 300.523109,62.7653332 L303.763836,57.2290908 L307.004563,62.7653332 C307.949775,64.453212 309.840199,65.3309089 311.865654,63.9130908 C313.823593,62.4952726 313.486018,60.4023029 312.20323,58.9844847 L307.949775,54.190909 L314.228684,52.7730908 C316.119108,52.3679999 317.604442,50.8826666 316.861775,48.5196363 L316.861775,48.5196363 Z" id="city72logo" sketch:type="MSShapeGroup"></path>
        </g>
    </g>
</svg>