<?xml version="1.0" encoding="UTF-8" standalone="no"?>
<svg width="138px" height="28px" viewBox="0 0 138 28" version="1.1" xmlns="http://www.w3.org/2000/svg" xmlns:xlink="http://www.w3.org/1999/xlink">
    <!-- Generator: Sketch 3.6.1 (26313) - http://www.bohemiancoding.com/sketch -->
    <title>city72logo-mobile</title>
    <desc>Created with Sketch.</desc>
    <defs></defs>
    <g id="Page-1" stroke="none" stroke-width="1" fill="none" fill-rule="evenodd">
        <g id="city72logo-mobile" fill="#C6C6C6">
            <g id="Group">
                <path d="M14.5134313,21.7017228 C14.5134313,17.633986 11.9112891,16.5890628 9.42066738,16.0292825 C6.96721908,15.5068209 4.84833192,15.4321835 4.84833192,13.7528426 C4.84833192,12.8571942 5.5918011,12.1481391 7.37612713,12.1481391 C8.64002474,12.1481391 9.60653467,12.3720513 11.0191261,12.8571942 C12.1343299,13.1930624 13.2867071,12.5586447 13.6212682,11.4764028 C13.9930028,10.3941609 13.435401,9.23728162 12.2830237,8.82677607 C10.8704323,8.34163315 9.45784084,8.00576498 7.07873946,8.00576498 C3.36139356,8.00576498 0.127302621,10.0956114 0.127302621,14.0513921 C0.127302621,17.7086234 2.28336324,18.8655026 4.55094424,19.4252829 C7.07873946,20.0970193 9.75522851,20.0223819 9.75522851,21.9256349 C9.75522851,23.0451955 8.64002474,23.7542505 6.74417833,23.7542505 C4.81115846,23.7542505 3.91899544,23.455701 2.80379167,23.0451955 C1.76293482,22.6720086 0.499037212,23.1571516 0.0901291625,24.3886682 C-0.20725851,25.4335914 0.238822999,26.7024267 1.31685331,27.0756136 C2.61792438,27.5234378 4.03051582,27.859306 6.66983141,27.859306 C10.684565,27.859306 14.5134313,26.1426464 14.5134313,21.7017228 L14.5134313,21.7017228 Z M34.5870991,25.8067783 C34.5870991,25.0977232 34.252538,24.649899 33.8808034,24.3140308 C33.3232015,23.8288879 32.9142935,23.4930197 32.9142935,22.2241844 L32.9142935,15.9919638 C32.9142935,10.3941609 30.8697532,8.00576498 25.4796017,8.00576498 C23.5094083,8.00576498 21.1674804,8.34163315 19.5690217,9.38655637 C17.3014407,10.8419851 19.271634,14.0887108 21.7250823,12.8198755 C22.5428984,12.3720513 23.5094083,11.9988644 25.0706936,11.9988644 C27.3382746,11.9988644 27.8958765,13.230381 27.8958765,15.3948648 L27.8958765,16.1039199 L24.5874387,16.1039199 C19.8292359,16.1039199 17.2270938,18.2684037 17.2270938,21.7763602 L17.2270938,22.037591 C17.2270938,25.5455475 19.4575013,27.859306 23.9183164,27.859306 C25.5539486,27.859306 27.5984888,27.5234378 29.0110803,26.2919212 C29.234121,26.5904707 29.4571618,26.8517015 29.7545495,27.0756136 C30.2378044,27.4488005 31.0556205,27.859306 32.0593039,27.859306 C33.5834157,27.859306 34.5870991,27.262207 34.5870991,25.8067783 L34.5870991,25.8067783 Z M27.8958765,21.3658546 C27.8958765,23.343745 26.7063258,24.2767121 24.9963467,24.2767121 C23.0633268,24.2767121 22.2083373,23.4930197 22.2083373,22.1122283 L22.2083373,21.8509975 C22.2083373,20.6194809 22.9889799,19.7238324 25.182214,19.7238324 L27.8958765,19.7238324 L27.8958765,21.3658546 Z M49.9025642,2.44528074 C49.9025642,1.25108279 48.8988809,0.243478261 47.7093302,0.243478261 L45.9250041,0.243478261 C41.1296279,0.243478261 38.7505265,3.07969841 38.7505265,7.70721549 L38.7505265,8.2296771 L38.1929247,8.2296771 C37.0777209,8.2296771 36.1483844,9.16264425 36.1483844,10.2822048 C36.1483844,11.4390841 37.0777209,12.3720513 38.1929247,12.3720513 L38.7505265,12.3720513 L38.7505265,25.358954 C38.7505265,26.7397454 39.8657303,27.859306 41.2783218,27.859306 C42.6537397,27.859306 43.7689435,26.7397454 43.7689435,25.358954 L43.7689435,12.3720513 L46.1480449,12.3720513 C47.2632487,12.3720513 48.1925851,11.4390841 48.1925851,10.2822048 C48.1925851,9.16264425 47.2632487,8.2296771 46.1480449,8.2296771 L43.7689435,8.2296771 L43.7689435,7.70721549 C43.7689435,5.54273169 44.6611065,4.64708323 46.5569529,4.64708323 L47.7093302,4.64708323 C48.8988809,4.64708323 49.9025642,3.67679739 49.9025642,2.44528074 L49.9025642,2.44528074 Z M67.0023554,17.7086234 L67.0023554,16.1039199 C67.0023554,11.7749523 64.8834682,8.00576498 59.2331025,8.00576498 C53.8057774,8.00576498 51.3895026,11.8495897 51.3895026,16.2158759 L51.3895026,19.6865137 C51.3895026,24.0528 53.4340429,27.859306 59.195929,27.859306 C60.980255,27.859306 62.9876218,27.5980752 65.0321621,26.6651081 C65.9614985,26.2546025 66.4075801,25.3216353 66.0730189,24.2020748 C65.7756313,23.1198329 64.6604275,22.5227339 63.6567441,22.9332394 C62.355673,23.455701 61.3519896,23.7542505 59.4933167,23.7542505 C57.411603,23.7542505 56.4079196,22.4480965 56.4079196,20.2089753 L56.4079196,19.4999203 L65.2923763,19.4999203 C66.2217128,19.4999203 67.0023554,18.7162279 67.0023554,17.7086234 L67.0023554,17.7086234 Z M62.1698057,15.2455901 L62.1698057,15.730733 L56.4079196,15.730733 L56.4079196,15.2455901 C56.4079196,13.118425 57.3744295,11.924227 59.3446228,11.924227 C61.3148162,11.924227 62.1698057,13.118425 62.1698057,15.2455901 L62.1698057,15.2455901 Z" id="safeGNV-Copy"></path>
                <path d="M90.0199755,18.4727496 L90.0199755,15.2633426 C90.0199755,13.7705952 89.0162921,12.6883533 87.6037007,12.6883533 L82.6224572,12.6883533 C81.3213861,12.6883533 80.2433558,13.7705952 80.2433558,15.0767492 C80.2433558,16.3829032 81.3213861,17.4651451 82.6224572,17.4651451 L85.0759055,17.4651451 L85.0759055,18.6220244 C85.0759055,21.2716511 84.1837425,23.2495415 80.8753046,23.2495415 C77.827081,23.2495415 76.1542753,21.4209258 76.1542753,15.9723977 L76.1542753,11.9792983 C76.1542753,6.75468219 77.827081,4.62751708 81.0611719,4.62751708 C82.287896,4.62751708 83.2172325,4.96338526 83.9607017,5.3738908 C84.629824,5.78439635 85.1130789,6.00830847 85.7078543,6.00830847 C87.2691396,5.97098978 88.0497822,4.88874788 88.0497822,3.7691873 C88.0497822,3.09745095 87.6780476,2.38839591 86.9345784,1.79129693 C85.521987,0.597098978 83.1428856,0 81.0611719,0 C73.7751739,0 71.0615114,5.07534132 71.0615114,11.8300235 L71.0615114,16.047035 C71.0615114,23.062948 73.7751739,27.8770585 80.8753046,27.8770585 C87.6037007,27.8770585 90.0199755,23.3614975 90.0199755,18.4727496 L90.0199755,18.4727496 Z" id="Path"></path>
                <path d="M114.048204,25.5259813 L114.048204,2.38839591 C114.048204,1.0822419 112.970173,0 111.669102,0 C110.368031,0 109.327175,1.0822419 109.327175,2.38839591 L109.327175,17.241233 L99.810769,1.3434727 C99.2531671,0.447824234 98.435351,0 97.3201472,0 C95.758862,0 94.8295255,1.0822419 94.8295255,2.38839591 L94.8295255,25.5259813 C94.8295255,26.8321353 95.8703823,27.8770585 97.1714534,27.8770585 C98.4725245,27.8770585 99.5133813,26.8321353 99.5133813,25.5259813 L99.5133813,10.6731442 L109.06696,26.6082232 C109.624562,27.5038717 110.442378,27.8770585 111.557582,27.8770585 C113.04452,27.8770585 114.048204,26.8321353 114.048204,25.5259813 L114.048204,25.5259813 Z" id="Path"></path>
                <path d="M137.86948,3.06013226 C138.427082,1.23151664 136.940144,0 135.453205,0 C134.486696,0 133.557359,0.559780292 133.222798,1.79129693 C131.624339,7.31446248 129.80284,13.3974083 127.758299,19.3683981 C125.750933,13.434727 124.00378,7.38909986 122.442495,1.90325299 C122.07076,0.597098978 121.067077,0 120.063393,0 C118.539282,0 116.940823,1.30615402 117.498425,3.28404438 C119.468618,10.2999574 121.810546,17.5771012 124.412688,25.1901131 C125.118984,27.2053222 126.159841,27.8770585 127.609606,27.8770585 C128.910677,27.8770585 130.100227,27.1680035 130.806523,25.1901131 C133.483012,17.5024638 135.862113,10.1506826 137.86948,3.06013226 L137.86948,3.06013226 Z" id="Path"></path>
            </g>
        </g>
    </g>
</svg>