<?xml version="1.0" encoding="UTF-8" standalone="no"?>
<svg width="296px" height="60px" viewBox="0 0 296 60" version="1.1" xmlns="http://www.w3.org/2000/svg" xmlns:xlink="http://www.w3.org/1999/xlink">
    <!-- Generator: Sketch 3.6.1 (26313) - http://www.bohemiancoding.com/sketch -->
    <title>city72logo</title>
    <desc>Created with Sketch.</desc>
    <defs></defs>
    <g id="Page-1" stroke="none" stroke-width="1" fill="none" fill-rule="evenodd">
        <g id="city72logo">
            <g id="Group">
                <path d="M31.0835162,46.5036917 C31.0835162,37.7871129 25.5104904,35.5479917 20.1763086,34.3484625 C14.9217413,33.2289019 10.383706,33.0689647 10.383706,29.4703771 C10.383706,27.5511304 11.9759991,26.0317267 15.7975025,26.0317267 C18.5044008,26.0317267 20.5743818,26.5115384 23.5997387,27.5511304 C25.9881783,28.2708479 28.4562326,26.9113815 29.1727645,24.5922917 C29.9689111,22.2732019 28.7746912,19.7941749 26.306637,18.9145202 C23.2812801,17.8749282 20.2559232,17.1552107 15.1605853,17.1552107 C7.19911985,17.1552107 0.272644906,21.633453 0.272644906,30.110126 C0.272644906,37.9470501 4.89029487,40.4260771 9.7467888,41.6256063 C15.1605853,43.0650413 20.8928404,42.9051041 20.8928404,46.9835034 C20.8928404,49.3825618 18.5044008,50.9019654 14.4440534,50.9019654 C10.3040914,50.9019654 8.39333967,50.2622165 6.00490004,49.3825618 C3.77568971,48.5828756 1.06879145,49.6224676 0.193030251,52.2614318 C-0.443886985,54.500553 0.51148887,57.2194859 2.82031385,58.019172 C5.60682676,58.9787954 8.63218364,59.6985129 14.2848241,59.6985129 C22.8832068,59.6985129 31.0835162,56.0199567 31.0835162,46.5036917 L31.0835162,46.5036917 Z M74.0754297,55.3002391 C74.0754297,53.7808355 73.3588978,52.8212121 72.5627513,52.1014946 C71.3685314,51.0619027 70.4927702,50.3421851 70.4927702,47.6232523 L70.4927702,34.2684939 C70.4927702,22.2732019 66.1139642,17.1552107 54.5698393,17.1552107 C50.3502626,17.1552107 45.3345394,17.8749282 41.9111093,20.1140494 C37.0546153,23.2328253 41.274192,30.1900946 46.5287592,27.4711618 C48.2802816,26.5115384 50.3502626,25.7118523 53.6940781,25.7118523 C58.5505721,25.7118523 59.7447919,28.3508165 59.7447919,32.9889961 L59.7447919,34.5083997 L52.6590876,34.5083997 C42.4684118,34.5083997 36.895386,39.1465793 36.895386,46.6636289 L36.895386,47.2234092 C36.895386,54.7404589 41.6722653,59.6985129 51.2260238,59.6985129 C54.7290686,59.6985129 59.1078746,58.9787954 62.1332315,56.3398311 C62.6109194,56.97958 63.0886074,57.5393603 63.7255246,58.019172 C64.7605151,58.8188581 66.5120375,59.6985129 68.6616332,59.6985129 C71.925834,59.6985129 74.0754297,58.4190151 74.0754297,55.3002391 L74.0754297,55.3002391 Z M59.7447919,45.7839742 C59.7447919,50.0223107 57.1971229,52.021526 53.5348488,52.021526 C49.3948868,52.021526 47.5637497,50.3421851 47.5637497,47.3833464 L47.5637497,46.8235662 C47.5637497,44.1846019 49.2356575,42.2653552 53.9329221,42.2653552 L59.7447919,42.2653552 L59.7447919,45.7839742 Z M106.876667,5.23988731 C106.876667,2.68089169 104.727072,0.52173913 102.179403,0.52173913 L98.3578994,0.52173913 C88.0876089,0.52173913 82.992271,6.59935373 82.992271,16.5154618 L82.992271,17.6350223 L81.7980512,17.6350223 C79.4096116,17.6350223 77.4192452,19.6342377 77.4192452,22.0332961 C77.4192452,24.5123231 79.4096116,26.5115384 81.7980512,26.5115384 L82.992271,26.5115384 L82.992271,54.3406158 C82.992271,57.2994545 85.3807107,59.6985129 88.4060675,59.6985129 C91.3518097,59.6985129 93.7402494,57.2994545 93.7402494,54.3406158 L93.7402494,26.5115384 L98.8355873,26.5115384 C101.224027,26.5115384 103.214393,24.5123231 103.214393,22.0332961 C103.214393,19.6342377 101.224027,17.6350223 98.8355873,17.6350223 L93.7402494,17.6350223 L93.7402494,16.5154618 C93.7402494,11.8772822 95.6510011,9.95803548 99.7113485,9.95803548 L102.179403,9.95803548 C104.727072,9.95803548 106.876667,7.87885154 106.876667,5.23988731 L106.876667,5.23988731 Z M143.499409,37.9470501 L143.499409,34.5083997 C143.499409,25.2320406 138.961373,17.1552107 126.859946,17.1552107 C115.236206,17.1552107 110.061254,25.3919778 110.061254,34.7483056 L110.061254,42.1853866 C110.061254,51.5417143 114.44006,59.6985129 126.780331,59.6985129 C130.601834,59.6985129 134.901026,59.1387326 139.279832,57.1395173 C141.270198,56.2598625 142.225574,54.2606472 141.509042,51.8615888 C140.872125,49.542499 138.483685,48.2630012 136.33409,49.1426559 C133.547577,50.2622165 131.397981,50.9019654 127.417248,50.9019654 C122.958828,50.9019654 120.809232,48.103064 120.809232,43.3049472 L120.809232,41.7855435 L139.837134,41.7855435 C141.827501,41.7855435 143.499409,40.1062026 143.499409,37.9470501 L143.499409,37.9470501 Z M133.149503,32.6691216 L133.149503,33.7087136 L120.809232,33.7087136 L120.809232,32.6691216 C120.809232,28.1109107 122.879213,25.5519151 127.09879,25.5519151 C131.318366,25.5519151 133.149503,28.1109107 133.149503,32.6691216 L133.149503,32.6691216 Z" id="safeGNV-Copy" fill="#FFBA00"></path>
                <path d="M192.796405,39.5844635 L192.796405,32.7071628 C192.796405,29.5084183 190.646809,27.1893285 187.621452,27.1893285 L176.953089,27.1893285 C174.166576,27.1893285 171.857751,29.5084183 171.857751,32.3073197 C171.857751,35.1062212 174.166576,37.425311 176.953089,37.425311 L182.207656,37.425311 L182.207656,39.904338 C182.207656,45.5821095 180.296904,49.820446 173.2112,49.820446 C166.682798,49.820446 163.100139,45.901984 163.100139,34.2265664 L163.100139,25.6699248 C163.100139,14.474319 166.682798,9.91610803 173.609273,9.91610803 C176.236557,9.91610803 178.226923,10.6358256 179.819216,11.5154803 C181.25228,12.395135 182.287271,12.8749467 183.561105,12.8749467 C186.90492,12.7949781 188.576828,10.4758883 188.576828,8.07682993 C188.576828,6.63739489 187.780682,5.11799124 186.188389,3.83849343 C183.163032,1.27949781 178.067694,0 173.609273,0 C158.004801,0 152.192931,10.8757314 152.192931,25.3500504 L152.192931,34.3865037 C152.192931,49.4206029 158.004801,59.736554 173.2112,59.736554 C187.621452,59.736554 192.796405,50.0603518 192.796405,39.5844635 L192.796405,39.5844635 Z" id="Path" fill="#F57026"></path>
                <path d="M244.257828,54.6985314 L244.257828,5.11799124 C244.257828,2.31908978 241.949003,0 239.16249,0 C236.375977,0 234.146767,2.31908978 234.146767,5.11799124 L234.146767,36.9454993 L213.765415,2.87887007 C212.571195,0.959623358 210.819673,0 208.431233,0 C205.087418,0 203.097051,2.31908978 203.097051,5.11799124 L203.097051,54.6985314 C203.097051,57.4974329 205.326262,59.736554 208.112775,59.736554 C210.899288,59.736554 213.128498,57.4974329 213.128498,54.6985314 L213.128498,22.8710234 L233.589464,57.0176212 C234.783684,58.9368679 236.535206,59.736554 238.923646,59.736554 C242.108232,59.736554 244.257828,57.4974329 244.257828,54.6985314 L244.257828,54.6985314 Z" id="Path" fill="#F57026"></path>
                <path d="M295.276021,6.55742628 C296.47024,2.63896423 293.285654,0 290.101068,0 C288.031087,0 286.040721,1.1995292 285.324189,3.83849343 C281.900759,15.6738482 277.999641,28.7087321 273.620835,41.5037102 C269.321643,28.7887007 265.579754,15.8337854 262.235939,4.07839927 C261.439792,1.27949781 259.290197,0 257.140601,0 C253.8764,0 250.45297,2.79890146 251.64719,7.03723796 C255.866767,22.0713372 260.88249,37.6652168 266.455516,53.9788139 C267.968194,58.297119 270.197404,59.736554 273.302376,59.736554 C276.088889,59.736554 278.636558,58.2171504 280.149236,53.9788139 C285.881491,37.5052796 290.976829,21.7514628 295.276021,6.55742628 L295.276021,6.55742628 Z" id="Path" fill="#F57026"></path>
            </g>
        </g>
    </g>
</svg>